<?xml version="1.0" encoding="UTF-8"?>
<!DOCTYPE svg PUBLIC "-//W3C//DTD SVG 1.1//EN" "http://www.w3.org/Graphics/SVG/1.1/DTD/svg11.dtd">
<!-- Creator: CorelDRAW -->
<svg xmlns="http://www.w3.org/2000/svg" xml:space="preserve" width="500px" height="500px" version="1.1" style="shape-rendering:geometricPrecision; text-rendering:geometricPrecision; image-rendering:optimizeQuality; fill-rule:evenodd; clip-rule:evenodd"
viewBox="0 0 500 500"
 xmlns:xlink="http://www.w3.org/1999/xlink"
 xmlns:xodm="http://www.corel.com/coreldraw/odm/2003">
 <defs>
  <style type="text/css">
   <![CDATA[
    .fil0 {fill:#EA3639}
   ]]>
  </style>
 </defs>
 <g id="Camada_x0020_1">
  <metadata id="CorelCorpID_0Corel-Layer"/>
  <path class="fil0" d="M384.82 403.26c-33.84,0 -61.28,-27.43 -61.28,-61.29 0,-33.83 27.44,-61.26 61.28,-61.26 33.84,0 61.26,27.43 61.26,61.26 0,33.86 -27.42,61.29 -61.26,61.29zm-134.27 0c-41.67,0 -74.64,-12 -98.93,-36 -24.28,-23.99 -36.41,-57.33 -36.41,-99.99l0 -170.38 85.78 0 0 183.82c0,24.37 21.95,44.11 49.02,44.11 27.07,0 49.02,-19.74 49.02,-44.11l0 -183.82 85.79 0 0 159.31c-47.38,0 -85.79,38.4 -85.79,85.77 0,18.21 5.68,35.11 15.36,48.98 -18.3,8.2 -39.57,12.31 -63.84,12.31zm-0.54 -403.26c-138.08,0 -250.01,111.93 -250.01,250.01 0,138.06 111.93,249.99 250.01,249.99 138.08,0 249.99,-111.93 249.99,-249.99 0,-138.08 -111.91,-250.01 -249.99,-250.01z"/>
 </g>
</svg>
