<?xml version="1.0" encoding="utf-8"?>
<!-- Generator: Adobe Illustrator 17.0.0, SVG Export Plug-In . SVG Version: 6.00 Build 0)  -->
<!DOCTYPE svg PUBLIC "-//W3C//DTD SVG 1.1//EN" "http://www.w3.org/Graphics/SVG/1.1/DTD/svg11.dtd">
<svg version="1.1" id="Layer_1" xmlns="http://www.w3.org/2000/svg" xmlns:xlink="http://www.w3.org/1999/xlink" x="0px" y="0px"
	 width="140px" height="70px" viewBox="0 0 140 70" enable-background="new 0 0 140 70" xml:space="preserve">
<g>
	<g id="LOGO_FINAL_500px_5_">
		<circle fill="#EC1C24" cx="78.399" cy="14.351" r="7.001"/>
		<g>
			<g>
				<path fill="#EC1C24" d="M0,50.153h4.347c2.305,0,3.724,1.059,3.724,3.365c0,1.418-0.699,2.361-1.796,2.798
					c1.662,0.339,2.664,1.36,2.664,3.212c0,2.154-1.341,3.478-3.855,3.478H0V50.153z M1.852,55.577h2.174
					c1.379,0,2.174-0.679,2.174-1.908c0-1.304-0.719-1.891-2.098-1.891H1.852V55.577z M1.852,61.379h2.986
					c1.493,0,2.174-0.738,2.174-1.965c0-1.398-0.851-2.116-2.437-2.116H1.852V61.379z"/>
				<path fill="#EC1C24" d="M10.865,50.153h5.084c2.193,0,3.875,1.551,3.875,4.121c0,2.268-1.531,3.76-3.44,3.97
					c1.077,1.284,2.326,3.324,3.686,3.324c0.378,0,0.87-0.15,1.248-0.358l0.207,1.491c-0.453,0.265-1.228,0.492-1.908,0.492
					c-2.514,0-4.215-3.986-5.519-4.932h-1.379v4.745h-1.852V50.153z M12.717,56.768h2.778c1.36,0,2.437-0.908,2.437-2.474
					c0-1.703-1.077-2.515-2.437-2.515h-2.778V56.768z"/>
				<path fill="#EC1C24" d="M22.77,50.153h1.852v12.853H22.77V50.153z"/>
				<path fill="#EC1C24" d="M29.14,53.252v9.753h-1.833V50.153h1.606l6.727,9.771v-9.771h1.872v12.853h-1.645L29.14,53.252z"/>
				<path fill="#EC1C24" d="M40.227,50.153h4.537c3.232,0,5.65,2.288,5.65,6.446c0,4.137-2.418,6.407-5.65,6.407h-4.537V50.153z
					 M44.537,61.379c2.4,0,3.987-1.681,3.987-4.781c0-3.139-1.587-4.821-3.987-4.821H42.08v9.601H44.537z"/>
				<path fill="#EC1C24" d="M52.487,63.006V50.153h8.544v1.645h-6.765v3.74h5.593v1.625h-5.593v4.215h6.765v1.626H52.487z"/>
				<path fill="#EC1C24" d="M62.887,60.416c0.756,0.53,1.986,1.078,3.27,1.078c1.437,0,2.571-0.701,2.571-2.097
					c0-0.983-0.624-1.493-1.891-1.873l-2.079-0.622c-1.587-0.492-2.495-1.531-2.495-3.194c0-1.985,1.513-3.724,4.403-3.724
					c1.457,0,2.929,0.455,3.781,0.945l-0.531,1.662c-0.794-0.528-2.096-0.904-3.193-0.904c-1.776,0-2.627,0.83-2.627,1.908
					c0,0.925,0.548,1.417,1.494,1.699l2.098,0.662c1.928,0.624,2.928,1.588,2.928,3.326c0,2.286-1.701,3.912-4.365,3.912
					c-1.587,0-3.08-0.584-3.799-1.039L62.887,60.416z"/>
			</g>
		</g>
		<path fill="#FFFFFF" d="M85.05,38.36l-0.518-0.223c-0.257,0.254-0.582,0.362-0.987,0.362c-0.577,0-1.082-0.344-1.331-0.923
			c-0.199-0.465-0.315-0.936-0.315-1.895V24.252c-1.095,0.386-2.272,0.597-3.5,0.597c-1.227,0-2.404-0.211-3.498-0.597
			c0,0-0.013,13.456,0,13.681C73.792,38.3,72.63,38.5,71.399,38.5c-2.32,0-4.199-1.881-4.199-4.199c0-0.033,0-10.198,0-10.198
			c0-6.953-4.637-12.901-13.087-12.901c-3.331,0-6.794,1.244-9.984,3.835c-0.281-0.666-0.648-1.262-1.104-1.789
			c-1.183-1.366-2.886-2.047-5.105-2.047c-1.621,0-2.976,0.372-4.063,1.118L33.6,12.798l1.05,4.843l0.518,0.223
			c0.256-0.257,0.582-0.363,0.987-0.363c0.577,0,1.08,0.346,1.331,0.924c0.199,0.466,0.315,0.937,0.315,1.896V37.1l0,0
			c0,0.774-0.629,1.4-1.4,1.4H33.6c-2.318,0-4.199-1.881-4.199-4.199v-3.338V11.202h-7.002v19.599c0,3.5-2.646,7.699-8.167,7.699
			c-0.035,0-0.188,0-0.231,0c-3.867,0-7-3.135-7-7V11.202H0v20.695c0,6.954,4.638,12.902,13.087,12.902
			c3.677,0,7.516-1.516,10.969-4.689l0.067-0.052c1.876,2.854,5.105,4.74,8.777,4.74c0.127,0,7.699,0,7.699,0
			c2.318,0,4.199-1.881,4.199-4.199V25.201c0-3.501,2.65-7.701,8.169-7.701c0.035,0,0.19,0,0.232,0c3.866,0,7,3.135,7,7
			c0,0,0,7.817,0,9.801c0,5.798,4.701,10.498,10.5,10.498c0.117,0,0.584,0,0.699,0c2.124,0,4.124-0.527,5.876-1.453
			c1.137,0.968,2.637,1.453,4.505,1.453c1.621,0,2.976-0.373,4.064-1.12L86.1,43.2L85.05,38.36z"/>
		<path fill="#FFFFFF" d="M132.998,11.202v19.599c0,3.5-2.648,7.699-8.167,7.699c-0.035,0-0.19,0-0.233,0
			c-3.865,0-6.998-3.135-6.998-7v-14c0-3.479-2.822-6.298-6.301-6.298l0,0l0,0c-1.22,0-11.9,0-11.9,0V0h-7v11.202h-3.981
			c0.312,0.993,0.482,2.051,0.482,3.149c0,1.096-0.17,2.155-0.482,3.149h3.981c0,0,0,16.67,0,16.801
			c0,5.798,4.701,10.498,10.5,10.498c0.119,0,0.584,0,0.701,0c1.466,0,2.873-0.252,4.182-0.715l0.225-0.481l-1.863-5.115
			l-0.408-0.191c-0.691,0.133-1.405,0.203-2.135,0.203c-2.32,0-4.201-1.881-4.201-4.199c0-0.033,0-16.801,0-16.801h9.801v0.003
			c0.754,0.039,1.357,0.644,1.395,1.399h0.005v12.995c0,6.954,4.637,12.902,13.087,12.902c3.03,0,6.17-1.03,9.114-3.169
			C131.264,53.681,120.969,63,108.5,63c-9.424,0-17.605-5.323-21.703-13.125l-0.476-0.158c-0.005,0.003-0.013,0.006-0.014,0.009
			c-0.936,0.448-2.031,0.674-3.286,0.674c-1.248,0-2.33-0.217-3.249-0.648l-0.527,0.433c0.001,0.001,0.001,0.003,0.001,0.007
			C83.889,61.8,95.235,70.001,108.5,70.001c17.395,0,31.5-14.104,31.5-31.501V11.202H132.998z"/>
	</g>
</g>
</svg>
